<svg xmlns="http://www.w3.org/2000/svg" width="320.849" height="375.99" viewBox="0 0 320.849 375.99">
  <g id="Group_3" data-name="Group 3" transform="translate(-1780.873 -1743.126)">
    <path id="Path_29" data-name="Path 29" d="M2030.019,1899.5c-9.066,1.486-17.432,1.929-25.207,4.306-23.255,7.109-40.633,21.226-47.211,45.442-2.207,8.125-1.333,17.1-1.753,25.69-.2,3.987,1.267,8.888-.572,11.716-1.683,2.587-6.973,2.609-10.364,4.361a54.633,54.633,0,0,0-11.631,7.446c-3.559,3.209-5.956,7.357-5.621,12.754.381,6.139-.065,12.325.146,18.481.114,3.335-1.177,4.332-4.355,4.292q-15.168-.192-30.339-.018c-13.758.158-27.515.666-41.272.663-14.257,0-28.514-.481-42.771-.664-7.946-.1-15.9-.119-23.841.015-3.239.055-4.418-1.178-4.352-4.4.5-24.609.338-49.248,1.552-73.819.7-14.1,6.869-26.831,14.318-38.823,8.1-13.038,19.252-22.786,32.481-30.144,5.291-2.943,11.218-4.756,16.894-6.984,2-.785,4.462-.8,6.113-1.99,5.348-3.869,9.081-1.511,13.317,2.153,16.595,14.353,33.467,28.386,50.111,42.683,3.553,3.053,6.284,2.865,9.735-.149,12.7-11.085,25.543-22,38.382-32.918,5.156-4.385,10.366-8.714,15.72-12.851a5.421,5.421,0,0,1,4.411-.947c10.585,4.2,21.259,8.271,31.494,13.23C2020.629,1891.56,2025.01,1895.835,2030.019,1899.5Z"/>
    <path id="Path_30" data-name="Path 30" d="M2022.184,2119.116c-11.111-.5-22.479.329-33.279-1.771-23.614-4.59-43.09-25.555-46.263-48.995-1.2-8.836-.273-17.96-.294-26.953-.017-7.495.5-15.032-.126-22.475-.831-9.944,7.776-19.47,16.688-21.417,4.236-.925,5.491-2.75,5.565-7.039.188-10.922-.383-22.132,1.874-32.688,5.092-23.81,20.514-39.312,44.3-43.758,35.5-6.637,63.385,16.418,67.849,47.71,1.375,9.634,1.019,19.542,1.063,29.326.016,3.625,1.176,5.344,4.647,6.271,11.887,3.177,17.446,10.545,17.447,22.683,0,13.657-.27,27.322.057,40.972.71,29.724-28.165,58.462-57.521,57.678-7.324-.195-14.657-.029-21.985-.029Zm-.142-122.778c9.833,0,19.668-.126,29.5.064,3.73.073,4.978-1.285,4.863-4.936-.21-6.66.185-13.342-.114-19.995-.923-20.591-14.849-35.939-35.836-34.958-13.836.646-25.595,8.749-30.192,21.917-3.788,10.852-2.173,22.044-2.645,33.117-.16,3.749,1.3,4.919,4.93,4.853C2002.375,1996.223,2012.209,1996.34,2022.042,1996.338Zm-3.414,71.79h.022c0,2.494-.406,5.082.137,7.452.389,1.693,2.051,3.094,3.145,4.626,1.139-1.485,3.107-2.889,3.26-4.47.448-4.613-.132-9.327.314-13.941a10.876,10.876,0,0,1,2.941-6.128c3.219-3.242,5.695-6.535,4.551-11.356a10.945,10.945,0,0,0-9.68-8.636c-5.542-.371-9.759,2.033-11.625,6.629-2.021,4.978-1.158,9.2,3.548,12.747a7.726,7.726,0,0,1,3.414,7.591C2018.5,2064.459,2018.628,2066.3,2018.628,2068.128Z" fill="#35ac4a"/>
    <path id="Path_31" data-name="Path 31" d="M1920.424,1743.239c36.622-2.277,72.884,30.36,69.707,75.584-2.129,30.307-28.844,67.745-76.818,64.168-30.654-2.286-66.663-29.3-63.363-76.557C1852.144,1775.008,1880.538,1740.914,1920.424,1743.239Z"/>
  </g>
</svg>
