<svg xmlns="http://www.w3.org/2000/svg" width="278.912" height="212.327" viewBox="0 0 278.912 212.327">
  <g id="Group_1" data-name="Group 1" transform="translate(0.115 -0.073)">
    <path id="Path_1" data-name="Path 1" d="M76.4,167.3c.2.4,0,.6-.1.9-1.9,4.6-3.8,9.2-6,13.7a8.3,8.3,0,0,1-1.9,2.7,5.508,5.508,0,0,1-4.4,1.6,146.062,146.062,0,0,1-19.8-3.3c-.6-.2-1.2-.3-1.8-.5-4-1.3-5.1-2.9-5-7.1a34.915,34.915,0,0,1,1.1-7.1c.2-.7.6-1.1,1.3-1H75.3C75.7,167.2,76.1,167.3,76.4,167.3Z" fill="#212121"/>
    <path id="Path_2" data-name="Path 2" d="M46.1,53.6c.8-2.9,1.6-5.4,2.3-7.9C52.2,32.5,55.3,19,58.6,5.6,59.8.7,60.8-.1,65.8.1a20.183,20.183,0,0,1,9.1,2c4.2,2.1,5.5,4.5,5,9.1A60.8,60.8,0,0,1,77,23.1,411.9,411.9,0,0,1,58.2,72.3a30.134,30.134,0,0,1-1.6,3.1,5.493,5.493,0,0,1-4.1,2.8,11.019,11.019,0,0,1-1.8.2H40c-4.4,0-7.5-2.1-9.6-5.9a42.159,42.159,0,0,1-3.1-9.7c-4.1-17.5-8.4-34.9-12.2-52.5-.3-1.5-.7-3.1-.9-4.6-.5-2.9.5-4.4,3.4-5A30.927,30.927,0,0,1,27.2.5a16.958,16.958,0,0,1,2.2.4c5.6,1.4,8.8,5,9.7,10.6.8,4.7,1.4,9.3,2.1,14l4.2,26.1A4.992,4.992,0,0,1,46.1,53.6Z" fill="#232322"/>
    <path id="Path_3" data-name="Path 3" d="M233.1,92.4a37.263,37.263,0,0,1-8-.8,18.732,18.732,0,0,1-5.2-2.3,2.168,2.168,0,0,1,.7-4.1,15.353,15.353,0,0,1,4.3-.5,22.243,22.243,0,0,0,5.7-.7,16.977,16.977,0,0,0,9.2-5.8,27.961,27.961,0,0,0,2.5-3.5A85.444,85.444,0,0,0,248.2,63c2-4.8,2.3-10,2.1-15.1-.2-4.6-.4-9.2-.3-13.7,0-.9.2-1.7-.9-2.2a1.262,1.262,0,0,1-.3-2c1.2-1.6,1.6-3.6,2.4-5.4,1.1-2.5,2.5-4.8,5.1-6.2a3.02,3.02,0,0,0,1.4-3.7,7.209,7.209,0,0,1,.4-4.8,3.252,3.252,0,0,1,5.3-1.1c.9.8,1.1,1.6.4,2.5a1.819,1.819,0,0,0-.2,2.2,5.05,5.05,0,0,1,.5,3,1.431,1.431,0,0,0,1,1.8,9.07,9.07,0,0,1,4.4,5.9,6.725,6.725,0,0,0,1.6,3c.8.8,1.3,1.8.5,2.9-.4.6-.1,1.2-.1,1.8a85.063,85.063,0,0,1-.4,23.1c-2.2,13.7-9.3,24.5-20.7,32.4A29.219,29.219,0,0,1,233.1,92.4Z" fill="#232322"/>
    <path id="Path_4" data-name="Path 4" d="M182.6,27.8c-.1.2-.1.3-.2.5a31.458,31.458,0,0,0-.9,5.2C181.9,31.6,182.2,29.7,182.6,27.8Z" fill="#232322"/>
    <path id="Path_5" data-name="Path 5" d="M183.1,24.7a2.492,2.492,0,0,1,.3-1.7A1.747,1.747,0,0,1,183.1,24.7Z" fill="#ababab"/>
    <path id="Path_6" data-name="Path 6" d="M200.8,102.4c0-1.5,0-3-.1-4.5-.5-7.6-4.7-12.8-11.8-14.7a22.113,22.113,0,0,0-5.7-.6q-64.8.3-129.4.4a28.278,28.278,0,0,0-4.1.3A14.571,14.571,0,0,0,37.2,94.7a32.06,32.06,0,0,0-.5,7.6c0,1.5,0,1.6-1.6,1.6H21.4a1.331,1.331,0,0,0-.1,2.6,8.6,8.6,0,0,0,1.6.1c4.6-.2,9.3-.6,13.9-.4,2.5.1,5.1,0,7.6,0,.5,0,1.4-.6,1.4.5,0,.9-.8.7-1.4.7H37.8c-.9,0-1.2.3-1.2,1.2a17.634,17.634,0,0,1,0,2.3c.1,1-.4,1.3-1.3,1.2H2.7a10.869,10.869,0,0,0-1.8.1,1.084,1.084,0,0,0-1,1.3,1.028,1.028,0,0,0,1,1.1,10.869,10.869,0,0,0,1.8.1c8.5-.2,16.9.3,25.4-.3,5.6-.4,11.3.1,17-.2.4,0,.7,0,.7.4a.632.632,0,0,1-.4.8,6.6,6.6,0,0,1-1.4.1H38.3c-1.5,0-1.5,0-1.5,1.6v16.8c0,1.5,0,1.6-1.6,1.6H17.6a1.162,1.162,0,0,0-1.3,1.3c-.1.9.5,1.4,1.4,1.5h1.4c3.9,0,7.8-.1,11.6-.4,4.7-.3,9.4.1,14.1-.2.3,0,.5,0,.6.3a.759.759,0,0,1-.3.9,2.2,2.2,0,0,1-1.4.2h-6c-.7,0-1,.2-1,.9v3.9c0,2.2.3,2.1-2.1,2.1H10.4a1.221,1.221,0,0,0-1.1,1.3,1.146,1.146,0,0,0,1,1.3c.5.1,1.1,0,1.6.1,4.5.1,9-.2,13.5-.4,4.5-.1,9,0,13.5,0,1.8,0,3.7,0,5.5-.1.3,0,.7-.1.8.4a.73.73,0,0,1-.6.9,4.818,4.818,0,0,1-1.2,0H38.5c-1.8,0-1.8-.2-1.8,1.7V159c0,1.7,0,1.6,1.6,1.6H198.6c2.1,0,2.1.3,2.1-1.7C200.8,140.2,201.1,121.3,200.8,102.4ZM89.8,122c3.4,2.2,4.7,5.4,4.4,9.3-.7,8.1-5.3,13.3-12.7,16a28.327,28.327,0,0,1-16.3,1,12.379,12.379,0,0,1-3.2-1.2,7.457,7.457,0,0,1-4-7.7,5.524,5.524,0,0,1,3.3-4.6,11.761,11.761,0,0,1,4.2-1c1.3-.1,2.5-.2,2.8,1.6a2.491,2.491,0,0,0,1.1,1.4c3.4,2.6,9.6.9,11.1-3.1,1.6-4.3-.1-7.1-4.6-7.4-3-.2-6-.2-9-.4-1.7-.1-1.7-.2-1.6-1.8a4.869,4.869,0,0,1,.1-1.2c.4-3,1.5-4.2,4.6-4.5,1.7-.2,3.4-.2,5.1-.3a21.751,21.751,0,0,0,2.5-.1,5.706,5.706,0,0,0,4.4-8.3,3.837,3.837,0,0,0-3.9-2.1c-2.5,0-5,.6-6.1,3.3a1.287,1.287,0,0,1-1.3.8,11.549,11.549,0,0,1-4.1-.5,5.1,5.1,0,0,1-3.5-6.8,8.273,8.273,0,0,1,4.1-4.7,18.325,18.325,0,0,1,7.6-2.4,32.221,32.221,0,0,1,9.8.2A15.016,15.016,0,0,1,88.8,99c3.8,2,5.4,5.3,5.7,9.3.3,4.9-1.3,9-5.5,11.8-.3.2-.6.3-.7.8A9.732,9.732,0,0,0,89.8,122ZM133,143.5a18.421,18.421,0,0,1-8.8,4.7,28.158,28.158,0,0,1-11.2.5c-6-1-10.4-5.2-11.6-11.7a49.588,49.588,0,0,1,1.3-24.5,23.129,23.129,0,0,1,4.2-7.9,19.732,19.732,0,0,1,14.3-7.5,29.133,29.133,0,0,1,10.6.8,9.887,9.887,0,0,1,4.7,2.8,7.03,7.03,0,0,1,1.7,6.9,4.834,4.834,0,0,1-2.6,3.3,12.83,12.83,0,0,1-5.7,1.3c-.8,0-1.3-.2-1.4-1.1-.2-1.9-1.5-2.6-3.2-2.9-4.7-.6-7.8,1.1-9.7,5.4a16.011,16.011,0,0,0-1.4,8.1c.8-.1,1-.7,1.3-1.1,4.9-6,13.4-5.5,17.7-2.7a11.068,11.068,0,0,1,5.2,8.7C139.2,132.9,137.8,138.7,133,143.5Zm29,5.3a27.767,27.767,0,0,1-12.5-1.3,11.8,11.8,0,0,1-4.7-2.8c-3.5-3.6-2.2-8.7,2.5-10.3a13.732,13.732,0,0,1,2.8-.5c1.4-.2,2.5-.2,3,1.6.3,1,1.2,1.4,2.1,1.8a9.413,9.413,0,0,0,6.4.3,6.3,6.3,0,0,0,3.6-2.8,8.853,8.853,0,0,0,1-7.1,4.214,4.214,0,0,0-3.8-3.5c-2.3-.2-3.5.4-4.5,2.6a1.7,1.7,0,0,1-1.7,1.1c-1.6-.1-3.3,0-4.9-.1-3.7-.3-5.1-1.8-5.1-5.5a59.489,59.489,0,0,1,.7-8.4c.6-4.7,1.2-9.4,1.8-14,.3-2.1.3-2.1,2.4-2.1h25.2c2,0,2.2.2,2,2.3-.1,1.2-.2,2.3-.3,3.5-.3,2.8-1.6,4-4.4,4.2-2.1.1-4.2,0-6.4,0h-6.4c-.7,0-1.2.1-1.3.9-.4,3.2-.8,6.4-1.3,9.7a14.272,14.272,0,0,1,9-1.6,12.225,12.225,0,0,1,11,10.5C180.2,137.5,174.1,147.4,162,148.8Z" fill="#212121"/>
    <path id="Path_7" data-name="Path 7" d="M277.2,146.6a247.22,247.22,0,0,0-9.1-28,40.216,40.216,0,0,0-4.6-8.7,4.282,4.282,0,0,0-3-1.9,124.064,124.064,0,0,0-16.1-1.9c-10.2-.8-20.3-1.2-30.5-2.1-2.4-.2-2.2-.3-2.1,1.9,0,19.8.1,39.5.1,59.3,0,3.1.3,2.6-2.6,2.6l-92.1-.6h-2.7v.7c2.1,4.9,4.1,9.8,6.2,14.7a6.221,6.221,0,0,0,3.7,3.4,12.221,12.221,0,0,0,5,.8h88.1c1.8,0,1.8,0,2.2-1.8a35.086,35.086,0,0,1,4.7-11.7c6.2-9.7,16.4-12.6,25.8-11,6.8,1.2,11.6,5.2,15,11.1a33.959,33.959,0,0,1,4,10.3,2.088,2.088,0,0,0,.8,1.6c3.4,2.2,6.9.6,7.5-3.4a129.562,129.562,0,0,0,1.2-23.3A54.01,54.01,0,0,0,277.2,146.6Zm-16.1-4.2q-10.5-1.35-21-2.4c-1-.1-2-.2-3.1-.4a4.9,4.9,0,0,1-4.3-5c-.2-6.9-.4-13.8-.5-20.7,0-1.4,0-1.5,1.4-1.4,4.2.3,8.5.6,12.7,1,3.1.2,6.1.5,9.2.7A4.357,4.357,0,0,1,259,116a17.032,17.032,0,0,1,1.5,2.2c2.9,4.7,8.8,19.4,10.1,25.3C267.4,143.1,264.2,142.8,261.1,142.4Z" fill="#212121"/>
    <path id="Path_8" data-name="Path 8" d="M244.6,170.4a21,21,0,1,0,20.9,21.1A21.1,21.1,0,0,0,244.6,170.4Zm-.2,32a10.95,10.95,0,1,1,.1-21.9,10.95,10.95,0,0,1-.1,21.9Z" fill="#212121"/>
    <path id="Path_9" data-name="Path 9" d="M95,170.4a21,21,0,1,0,21.2,21A20.969,20.969,0,0,0,95,170.4Zm0,32a10.951,10.951,0,1,1,11.1-10.8A11.1,11.1,0,0,1,95,202.4Z" fill="#212121"/>
    <path id="Path_10" data-name="Path 10" d="M45.7,60.5c1.1-3.7,2.1-7,3-10.3C53,35.4,56.6,20.4,60.3,5.4A7.366,7.366,0,0,1,60.7,4c.5-1.7,1.2-2.2,3-2.3a28.91,28.91,0,0,1,8.3.8,12.214,12.214,0,0,1,4.5,2.4,5.993,5.993,0,0,1,2.1,5.5c-.9,7.1-3.4,13.8-5.6,20.5A429.164,429.164,0,0,1,56.4,72.8c-1.3,2.9-3.3,4.2-6.4,4-2.9-.1-5.7,0-8.6,0-5.6.1-8.5-2.3-10.3-7.4-1.8-5-2.7-10.2-3.9-15.2-1.7-6.7-3.2-13.4-4.7-20.1L16.5,8A14.681,14.681,0,0,1,16,5.1c-.3-1.9.1-2.4,1.9-3A3.545,3.545,0,0,1,19,1.8c3.5-.1,7.1-.4,10.6.5a10.209,10.209,0,0,1,8,8.7c.7,3.6,1.1,7.3,1.7,10.9.6,4,1.2,7.9,1.9,11.9.8,4.8,1.5,9.6,2.3,14.3.6,3.6,1.2,7.3,1.8,10.9A8.527,8.527,0,0,0,45.7,60.5Z" fill="#35ac4a"/>
    <path id="Path_11" data-name="Path 11" d="M104.8,51.4a30.311,30.311,0,0,0,11.8-5.1c6.1-4.7,8.1-10.8,6.7-18.2-1.2-6.2-5.3-9.8-11.2-11.6a31.62,31.62,0,0,0-13-.9c-9.9,1.1-17.5,5.8-22.3,14.7a41.929,41.929,0,0,0-4.5,25.1A21.793,21.793,0,0,0,89.4,74.7a37.823,37.823,0,0,0,18.9-.3,18.819,18.819,0,0,0,8.5-4.7c3.7-3.8,4.1-12-3.9-14.6-3.1-1-4.6-.6-6.6,2-2.3,3-5.2,3.6-8.6,2.6a6.721,6.721,0,0,1-4.9-6.6c.7-.1,1.3-.1,2-.2A57.55,57.55,0,0,0,104.8,51.4ZM95.5,34.5A5.174,5.174,0,0,1,98.9,32c1.4-.2,2.8-.2,3.7,1.1a4.159,4.159,0,0,1,.4,4.3,4.494,4.494,0,0,1-2.1,2.2A18.513,18.513,0,0,1,93,41.7,16.692,16.692,0,0,1,95.5,34.5Z" fill="#232322"/>
    <path id="Path_12" data-name="Path 12" d="M254.5,30.5c.1-.1.1-.2.2-.4,1.2-1.5,1.2-1.5,3-.5a3.628,3.628,0,0,0,3.5,0,4.465,4.465,0,0,1,1.7-.8c1.1-.2,2.2-.5,3.1.6a4.507,4.507,0,0,0,2.6,1.2c.8.2,1,.7,1.2,1.4a43.475,43.475,0,0,1,.4,7.2,110.77,110.77,0,0,1-.5,14.1A46.746,46.746,0,0,1,261,75.1,41.936,41.936,0,0,1,248.1,87a28.962,28.962,0,0,1-10.9,3.4,33.4,33.4,0,0,1-11.8-.5c-1.6-.3-3-1.3-4.5-1.9a.871.871,0,0,1-.6-.8c.1-.4.4-.5.8-.6a13.945,13.945,0,0,1,4.1-.4,20.268,20.268,0,0,0,8.4-1.6,17.234,17.234,0,0,0,7.6-5.7A60.645,60.645,0,0,0,251,59.2a36.285,36.285,0,0,0,.8-10.4c-.1-2.6,0-5.2-.2-7.8-.1-2.4,0-4.8,0-7.1,0-1.4.4-2.4,1.8-2.8a1.612,1.612,0,0,0,.7-.4c1.3,2.1,1.2,4.6,1.3,6.9.4,8.3.2,16.5-2.4,24.5a35.678,35.678,0,0,1-2.1,5.6c3.8-5.8,5.6-13.4,5.8-21.3A43.872,43.872,0,0,0,255.2,34,9.479,9.479,0,0,1,254.5,30.5Z" fill="#35ab4a"/>
    <path id="Path_13" data-name="Path 13" d="M92.1,51.4a75.253,75.253,0,0,0,8.3-.8,41.9,41.9,0,0,0,11-3.1c5.9-2.7,11.8-8.2,10.5-17.8-.7-5.5-3.7-9.1-8.8-11.1a32.211,32.211,0,0,0-10.8-1.7,37.5,37.5,0,0,0-6.8.8c-7,1.6-12.8,5.3-16.4,11.6a38.755,38.755,0,0,0-4.9,28c1.6,7.9,6.5,13.1,14.3,15.4a34.364,34.364,0,0,0,18,.3,17.855,17.855,0,0,0,8.2-3.9c3.9-3.5,4.3-10.2-2-12.5-3-1.1-3.6-1.3-5.4,1.4-2.5,3.6-7.5,4.4-11.4,2.6-3.3-1.5-4.5-4.4-5.1-7.7C90.6,51.6,90.7,51.4,92.1,51.4Zm3.4-16.9A5.174,5.174,0,0,1,98.9,32c1.4-.2,2.8-.2,3.7,1.1a4.159,4.159,0,0,1,.4,4.3,4.494,4.494,0,0,1-2.1,2.2A18.513,18.513,0,0,1,93,41.7,16.692,16.692,0,0,1,95.5,34.5Z" fill="#35ab4a"/>
    <path id="Path_14" data-name="Path 14" d="M270.1,29.1a3.882,3.882,0,0,1-3.5-1.2c-1.6-1.8-3.4-1.1-4.8-.3a4.051,4.051,0,0,1-4.7-.2c-1.4-1-2.1-.8-2.9.7s-2.2,1.9-3.5,2.6a1.438,1.438,0,0,1-.2-.3c1.3-1.9,1.6-4.2,2.6-6.2a9.95,9.95,0,0,1,3.6-4,5.21,5.21,0,0,0,2.3-5.6c-.2-1.4-.4-2.9.5-4.1a1.329,1.329,0,0,1,1.7-.7c.5.2,1,.5.6,1.2a3.182,3.182,0,0,0,.1,3.5,2.748,2.748,0,0,1,.2,2,3.305,3.305,0,0,0,2.1,3.6,4.987,4.987,0,0,1,2.7,3C267.9,25.1,268.4,27.2,270.1,29.1Z" fill="#254922"/>
    <path id="Path_15" data-name="Path 15" d="M254.5,30.5a18.221,18.221,0,0,1,1.9,6.8,52.885,52.885,0,0,1,.8,7.9,43.569,43.569,0,0,1-2.8,16.4,46.1,46.1,0,0,1-4.5,8.5c-.2.3-.3.6-.7.7-.3-.7.2-1.2.4-1.7a54.1,54.1,0,0,0,4.8-17.7,89.536,89.536,0,0,0,.2-13.7c-.1-2.3-.5-4.6-.8-6.9A2.389,2.389,0,0,0,254.5,30.5Z" fill="#97cf99"/>
    <path id="Path_16" data-name="Path 16" d="M128.4,127.7c3.3,2.4,4,5.1,1.7,9.7a8,8,0,0,1-9.1,4.1,11.95,11.95,0,0,1-6.6-4.6,7.843,7.843,0,0,1-.5-8.9c1.7-3,4.3-4.8,7.9-4.4.3,0,.5.2.8.3a.891.891,0,0,1,.8.5c.3.5.6,1,.2,1.5s-.9,0-1.3-.1c-2.1-.8-2.1-.8-3.6-.2a5.163,5.163,0,0,1,6.5,5.6c1-.5.7-2.4,2.3-2a2.908,2.908,0,0,1,2.1,2.7c0-1.2-.9-2.1-1.5-3C127.4,128.2,127.5,128.1,128.4,127.7Z" fill="#dc3427"/>
    <path id="Path_17" data-name="Path 17" d="M128.4,127.7c-.7.1-.6.4-.2.8a4.318,4.318,0,0,1,1.3,4.7,4.331,4.331,0,0,0-3-3.9,3.574,3.574,0,0,1-2.7,3.5c1.1-2.1,1.5-4-.5-5.4-1.7-1.1-3.5-2.7-5.8-.5,1.2-2.7,2.6-2.9,5.8-1,.2-.9-.4-1.4-.8-2-.2-1.2-1.2-1.8-2-2.5,1.8.1,1.8.2,4.6,4.5.8-.1.8-.9,1.2-1.5.1-.2.3-.5.6-.3.3.1.3.4.3.7,0,.5-.5.9-.3,1.4,2.2.6,2.2.6,3.5,1.8C129.6,128.2,129.1,127.6,128.4,127.7Z" fill="#74a143"/>
    <path id="Path_18" data-name="Path 18" d="M233.2,8.6c-2.1-.6-4.3-.6-6.5-1-2.9-.4-3.5-.1-4.9,2.6a14.576,14.576,0,0,0-9.2-5,22.061,22.061,0,0,0-3.7-.4,22.345,22.345,0,0,0-11.4,2.1C189.4,11,185.4,18,183.3,26.4c-.2,2.2-.9,4.3-1.2,6.5-.4,3-.3,6.1-.5,9.1.2,1.2.3,2.3.5,3.4,1.6,7.6,5.8,12.9,13.6,14.8,5.9,1.4,11.7,1.3,16.8-2.5h.3a16.544,16.544,0,0,1-3.4,8,7.549,7.549,0,0,1-3,2,10.692,10.692,0,0,1-12.5-4.4,6.07,6.07,0,0,0-.7-1,4.289,4.289,0,0,0-3.2-2,10.946,10.946,0,0,0-8.4,1.9,7.741,7.741,0,0,0-3.4,6.5,10.412,10.412,0,0,0,3.2,7.7,19.753,19.753,0,0,0,7.7,5,44.612,44.612,0,0,0,22.6,2.3c9.8-1.6,16.1-7.2,19-16.7.5-1.5.9-3,1.3-4.5,3-12.1,5.4-24.3,7.3-36.6a42.342,42.342,0,0,0,.8-7.9C240.3,12.7,238.2,10,233.2,8.6ZM217.4,37.5a12.2,12.2,0,0,1-3,5.3,7.621,7.621,0,0,1-9,1.6,4.1,4.1,0,0,1-2.2-2.6,11.244,11.244,0,0,1-.4-4.1,27.4,27.4,0,0,1,2.5-10.5,11.872,11.872,0,0,1,2.6-3.6,7.017,7.017,0,0,1,7.8-1.2,4.506,4.506,0,0,1,2.6,3.5,19.727,19.727,0,0,1,.4,3.5A36.059,36.059,0,0,1,217.4,37.5Z" fill="#232322"/>
    <path id="Path_19" data-name="Path 19" d="M233.9,10.4a31.578,31.578,0,0,0-8.7-1.3c-1-.1-1.5.4-1.6,1.4a22.469,22.469,0,0,1-1,4.9c-.2-.5-.4-.8-.5-1.1-1.1-3.6-3.7-5.6-7-6.9A23.624,23.624,0,0,0,196.9,9a24.584,24.584,0,0,0-10.3,12.4,45.671,45.671,0,0,0-2.7,9.6c-.9,5.4-1.2,10.7.3,16a15.054,15.054,0,0,0,5.3,8.4C194.4,59.1,200,60,206,59a13.262,13.262,0,0,0,7.2-4l2.1-2.1a8.266,8.266,0,0,1-.4,3.9,23.6,23.6,0,0,1-3.5,9.1,8.655,8.655,0,0,1-4.9,3.5,11.967,11.967,0,0,1-13.8-5.1,2.506,2.506,0,0,1-.4-.7,3.387,3.387,0,0,0-2.8-1.8,9.577,9.577,0,0,0-7.4,2.3,7.07,7.07,0,0,0-.9,9c2.1,3.6,5.5,5.6,9.3,7a42.4,42.4,0,0,0,20.6,2.1c8.3-1.2,14.4-5.3,17.5-13.3a94.9,94.9,0,0,0,4.1-15c2.2-10,4.2-20.2,5.7-30.3a24.747,24.747,0,0,0,.5-6.1C238.5,13,236.8,11.4,233.9,10.4ZM217.4,37.5a12.2,12.2,0,0,1-3,5.3,7.621,7.621,0,0,1-9,1.6,4.1,4.1,0,0,1-2.2-2.6,11.244,11.244,0,0,1-.4-4.1,27.4,27.4,0,0,1,2.5-10.5,11.872,11.872,0,0,1,2.6-3.6,7.017,7.017,0,0,1,7.8-1.2,4.506,4.506,0,0,1,2.6,3.5,19.727,19.727,0,0,1,.4,3.5A36.059,36.059,0,0,1,217.4,37.5Z" fill="#35ab4a"/>
    <path id="Path_20" data-name="Path 20" d="M176.7,6.3a49.094,49.094,0,0,0-6.7-.9c-2.8-.2-3.2,0-4.5,2.5a15.821,15.821,0,0,0-10.4-5.2c-5.3-.6-10.5-.2-15.3,2.6a25.458,25.458,0,0,0-10.5,12.2,45.474,45.474,0,0,0-3.7,23.6,20.551,20.551,0,0,0,5,11.7c5.2,6,18.2,8.1,25.1,3,.3-.2.5-.6,1.1-.4a17.6,17.6,0,0,1-3.4,7.8,6.841,6.841,0,0,1-4.5,2.5c-4.7.5-8.9-.2-11.3-4.9-.1-.2-.3-.5-.4-.7a4.614,4.614,0,0,0-3.5-2.2,11.029,11.029,0,0,0-7.1,1.4,7.875,7.875,0,0,0-4.3,7.2,10.271,10.271,0,0,0,3,7.4,19.645,19.645,0,0,0,7.2,4.9,43.332,43.332,0,0,0,24.4,2.3,21.1,21.1,0,0,0,16.6-13.2,28.275,28.275,0,0,0,1.4-4.1c2.7-9,4.4-18.2,6.2-27.4A64.188,64.188,0,0,0,183,25.6c0-.4.1-.8.1-1.2.3-.5,0-1.2.3-1.7.1-.7.2-1.5.3-2.2a29.2,29.2,0,0,0,.3-5.9C183.5,10,181.4,7.4,176.7,6.3ZM160.9,35.7a11.117,11.117,0,0,1-3.8,5.7,8.375,8.375,0,0,1-8.5.5,4.469,4.469,0,0,1-2-3.6,24.162,24.162,0,0,1,3.3-14.9,7.113,7.113,0,0,1,7.6-3.7c2.5.4,4.1,1.7,4.5,4.3.2,1.1.2,2.3.3,3.5A28.206,28.206,0,0,1,160.9,35.7Z" fill="#232322"/>
    <path id="Path_21" data-name="Path 21" d="M99.9,30.4c-2.5-.1-4.1,1.1-5.5,3-2,2.7-2.5,5.8-3.2,9-.1.5.1.8.6.8h1.4a19.644,19.644,0,0,0,9.1-2.7,6.124,6.124,0,0,0,2.5-3.6A4.877,4.877,0,0,0,99.9,30.4Zm3.1,7a4.494,4.494,0,0,1-2.1,2.2A18.513,18.513,0,0,1,93,41.7a16.736,16.736,0,0,1,2.5-7.1,5.174,5.174,0,0,1,3.4-2.5c1.4-.2,2.8-.2,3.7,1.1A3.962,3.962,0,0,1,103,37.4Z" fill="#242423"/>
    <path id="Path_22" data-name="Path 22" d="M175.5,7.6a46.179,46.179,0,0,0-6.5-.8c-.9-.1-1.5.3-1.6,1.4-.2,1.6-.6,3.1-.9,4.9-.3-.5-.5-.7-.5-.9-1.5-4.4-4.9-6.5-9.2-7.6a32.083,32.083,0,0,0-6.9-.5,16.869,16.869,0,0,0-8.8,2.4,23.186,23.186,0,0,0-7.6,7,34.727,34.727,0,0,0-4.7,10.6c-1.6,6.4-2.6,12.8-1.1,19.4,1.4,5.8,4.5,10.1,10.2,12.2a22.819,22.819,0,0,0,8.2,1.4,14.727,14.727,0,0,0,11-4.6c.7-.7,1.3-1.4,2.1-2.2v1.4A29.784,29.784,0,0,1,156,62.2a8.688,8.688,0,0,1-6.6,5,19.06,19.06,0,0,1-6.3-.2,9.177,9.177,0,0,1-6.1-4.2,8.341,8.341,0,0,1-.8-1.2,3.7,3.7,0,0,0-4.1-2.1c-.5.1-1,0-1.4.1a9.268,9.268,0,0,0-5.6,2.7c-2,2.2-1.7,6.5-.3,8.7a15.963,15.963,0,0,0,7.5,6.1,33.362,33.362,0,0,0,10.3,2.7,43.67,43.67,0,0,0,13.5-.2c7.4-1.4,12.8-5.4,15.7-12.3a34.465,34.465,0,0,0,2-6.2,325.455,325.455,0,0,0,8.4-43.8C183.1,11.7,181.3,8.8,175.5,7.6ZM160.9,35.7a11.117,11.117,0,0,1-3.8,5.7,8.375,8.375,0,0,1-8.5.5,4.469,4.469,0,0,1-2-3.6,24.162,24.162,0,0,1,3.3-14.9,7.113,7.113,0,0,1,7.6-3.7c2.5.4,4.1,1.7,4.5,4.3.2,1.1.2,2.3.3,3.5A28.206,28.206,0,0,1,160.9,35.7Z" fill="#35ac4a"/>
    <path id="Path_23" data-name="Path 23" d="M163.7,24.5c-.3-3.2-1.9-5.4-4.8-6.1-3.3-.8-6.4-.5-8.9,2.2a18.6,18.6,0,0,0-2.1,2.8A27.566,27.566,0,0,0,144.8,38c.2,2.3,1,4.5,3.4,5.5,3.9,1.7,8.2,1.5,11.4-2.2a18.52,18.52,0,0,0,2.1-3.3,24.132,24.132,0,0,0,2-10.6A28.027,28.027,0,0,0,163.7,24.5Zm-2.8,11.2a11.117,11.117,0,0,1-3.8,5.7,8.375,8.375,0,0,1-8.5.5,4.469,4.469,0,0,1-2-3.6,24.162,24.162,0,0,1,3.3-14.9,7.113,7.113,0,0,1,7.6-3.7c2.5.4,4.1,1.7,4.5,4.3.2,1.1.2,2.3.3,3.5A28.206,28.206,0,0,1,160.9,35.7Z" fill="#242423"/>
    <path id="Path_24" data-name="Path 24" d="M220.1,27c-.4-5.6-5.1-7.2-8.9-6.6-3.4.5-5.4,2.8-6.9,5.5-2.2,3.8-2.7,8.1-3.1,12.4v.8c.3,5.4,2.9,7.8,8.9,7.5,3.5-.2,5.8-2.3,7.3-5.2A26.572,26.572,0,0,0,220.1,27Zm-2.7,10.5a12.2,12.2,0,0,1-3,5.3,7.621,7.621,0,0,1-9,1.6,4.1,4.1,0,0,1-2.2-2.6,11.244,11.244,0,0,1-.4-4.1,27.4,27.4,0,0,1,2.5-10.5,11.872,11.872,0,0,1,2.6-3.6,7.017,7.017,0,0,1,7.8-1.2,4.506,4.506,0,0,1,2.6,3.5,19.727,19.727,0,0,1,.4,3.5A36.059,36.059,0,0,1,217.4,37.5Z" fill="#232423"/>
  </g>
</svg>
